<svg xmlns="http://www.w3.org/2000/svg" width="252.354" height="252.354" viewBox="0 0 66.769 66.769">
    <path d="M81.387 118.416c-13.028 13.028-13.028 34.199 0 47.227 13.027 13.028 34.199 13.028 47.226 0 13.028-13.028 13.028-34.2 0-47.227-13.027-13.028-34.199-13.028-47.226 0zm2.325 2.326c11.77-11.771 30.805-11.771 42.576 0 11.77 11.77 11.77 30.805 0 42.575-11.77 11.77-30.805 11.77-42.576 0-11.77-11.77-11.77-30.805 0-42.575z" style="color:#000;font-style:normal;font-variant:normal;font-weight:400;font-stretch:normal;font-size:medium;line-height:normal;font-family:sans-serif;font-variant-ligatures:normal;font-variant-position:normal;font-variant-caps:normal;font-variant-numeric:normal;font-variant-alternates:normal;font-feature-settings:normal;text-indent:0;text-align:start;text-decoration:none;text-decoration-line:none;text-decoration-style:solid;text-decoration-color:#000;letter-spacing:normal;word-spacing:normal;text-transform:none;writing-mode:lr-tb;direction:ltr;text-orientation:mixed;dominant-baseline:auto;baseline-shift:baseline;text-anchor:start;white-space:normal;shape-padding:0;clip-rule:nonzero;display:inline;overflow:visible;visibility:visible;opacity:1;isolation:auto;mix-blend-mode:normal;color-interpolation:sRGB;color-interpolation-filters:linearRGB;solid-color:#000;solid-opacity:1;vector-effect:none;fill:red;fill-opacity:1;fill-rule:nonzero;stroke:none;stroke-width:.1;stroke-linecap:butt;stroke-linejoin:round;stroke-miterlimit:4;stroke-dasharray:none;stroke-dashoffset:0;stroke-opacity:1;color-rendering:auto;image-rendering:auto;shape-rendering:auto;text-rendering:auto;enable-background:accumulate" transform="translate(-71.616 -108.645)"/>
    <path d="m83.712 120.742 42.99 42.989" style="fill:red;stroke:red;stroke-width:3.39400005;stroke-linecap:butt;stroke-linejoin:miter;stroke-miterlimit:4;stroke-dasharray:none;stroke-opacity:1" transform="translate(-71.616 -108.645)"/>
</svg>
