<svg xmlns="http://www.w3.org/2000/svg" width="18" height="24" fill="none">
    <path fill="#96359F" fill-rule="evenodd" d="M15.374 15.572A9.165 9.165 0 0 0 18 9.128C18 4.087 13.97 0 9 0S0 4.087 0 9.128a9.165 9.165 0 0 0 2.625 6.443l5.554 7.983a1 1 0 0 0 1.642 0l5.553-7.982Z" clip-rule="evenodd"/>
    <path fill="#96359F" stroke="#fff" stroke-width=".5" d="M16.75 9a7.75 7.75 0 1 1-15.5 0 7.75 7.75 0 0 1 15.5 0Z"/>
    <path stroke="#fff" d="M6.5 3v12"/>
    <path stroke="#fff" stroke-dasharray="3 3" stroke-linecap="round" stroke-width=".6" d="M8.3 3.3v11.4"/>
    <path stroke="#fff" d="M10.5 3v12"/>
    <circle cx="11.5" cy="9.5" r="2.1" fill="#96359F" stroke="#fff" stroke-width=".8"/>
    <path stroke="#fff" stroke-linecap="round" stroke-width=".8" d="M11.5 8.25v1.283l.875.717"/>
</svg>
