<svg width="24" height="24" viewBox="0 0 24 24" fill="none" xmlns="http://www.w3.org/2000/svg">
<path d="M24 12C24 18.6274 18.6274 24 12 24C5.37258 24 0 18.6274 0 12C0 5.37258 5.37258 0 12 0C18.6274 0 24 5.37258 24 12Z" fill="#005151"/>
<path d="M22.4167 11.8311C22.4167 17.4978 17.7563 22.0976 12 22.0976C6.24369 22.0976 1.58334 17.4978 1.58334 11.8311C1.58334 6.16437 6.24369 1.56458 12 1.56458C17.7563 1.56458 22.4167 6.16437 22.4167 11.8311Z" fill="#005151" stroke="white" stroke-width="0.5"/>
<rect x="7.87878" y="6.15463" width="0.533333" height="12.8469" rx="0.266667" fill="white"/>
<rect x="10.7879" y="6.15463" width="0.32864" height="4.66667" rx="0.16432" transform="rotate(90 10.7879 6.15463)" fill="white"/>
<path d="M6.76666 8.48317C6.76666 8.23449 6.99116 8.04608 7.23607 8.08923L19.5694 10.2625C19.7606 10.2961 19.9 10.4623 19.9 10.6564V13.0057C19.9 13.1998 19.7606 13.3659 19.5694 13.3996L7.23607 15.5729C6.99116 15.616 6.76666 15.4276 6.76666 15.1789V8.48317Z" fill="#005151" stroke="white" stroke-width="0.2"/>
<path fill-rule="evenodd" clip-rule="evenodd" d="M14.0136 9.24927L11.5649 8.76651V14.7774L14.0136 14.2947V9.24927ZM16.4626 13.8119L18.4247 13.425C18.5653 13.3973 18.6667 13.274 18.6667 13.1307V10.4132C18.6667 10.2699 18.5653 10.1466 18.4247 10.1189L16.4626 9.73209V13.8119ZM7.02468 7.8714L9.11597 8.28369V15.2431L9.11625 15.2602L7.02468 15.6726C6.83927 15.7091 6.66666 15.5672 6.66666 15.3782V8.16573C6.66666 7.97675 6.83928 7.83484 7.02468 7.8714Z" fill="white"/>
<path d="M11.8473 6.21701C11.9147 6.25536 11.9147 6.35247 11.8473 6.39082L10.5586 7.12441C10.4919 7.16236 10.4091 7.11421 10.4091 7.03751L10.4091 5.57032C10.4091 5.49361 10.4919 5.44547 10.5586 5.48341L11.8473 6.21701Z" fill="white"/>
</svg>
